<?xml version="1.0" encoding="utf-8"?>
<!-- Generator: Adobe Illustrator 25.4.1, SVG Export Plug-In . SVG Version: 6.00 Build 0)  -->
<svg version="1.1" xmlns="http://www.w3.org/2000/svg" xmlns:xlink="http://www.w3.org/1999/xlink" x="0px" y="0px"
	 viewBox="0 0 2267.7 2267.7" style="enable-background:new 0 0 2267.7 2267.7;" xml:space="preserve">
<style type="text/css">
	.st0{fill:#D16EA8;}
	.st1{fill:none;stroke:#FFFFFF;stroke-width:250;stroke-linecap:round;stroke-linejoin:round;stroke-miterlimit:10;}
	.st2{fill:none;stroke:#FFFFFF;stroke-width:150;stroke-linecap:round;stroke-linejoin:round;stroke-miterlimit:10;}
	.st3{fill:none;stroke:#D16EA8;stroke-width:180;stroke-linecap:round;stroke-linejoin:round;stroke-miterlimit:10;}
	.st4{fill:none;}
	.st5{fill:#FFFFFF;}
	.st6{fill-rule:evenodd;clip-rule:evenodd;fill:#D8348C;}
	.st7{fill:#FDEFF5;}
	.st8{fill:#D8348C;}
</style>
<g id="圖層_2">
</g>
<g id="圖層_1">
	<g>
		<path class="st6" d="M643.1,1957.9c-151.6,0-274.6-122.9-274.6-274.6V584.4c0-151.6,122.9-274.6,274.6-274.6
			s274.6,122.9,274.6,274.6v1098.9C917.6,1835,794.7,1957.9,643.1,1957.9z"/>
		<path class="st6" d="M1133.9,1377.2c-150.9,0-294.3-26.5-403.7-74.7c-69.9-30.7-126.5-70.3-168.3-117.6
			c-54.6-61.8-83.5-136.3-83.5-215.4c0-91,73.8-164.7,164.7-164.7c89.7,0,162.7,71.7,164.7,160.9c6.7,8.4,32.1,29.3,89.7,48.4
			c65.3,21.6,149.3,33.6,236.4,33.6s171.1-11.9,236.4-33.6c57.5-19.1,83-40,89.7-48.4c2-89.2,75-160.9,164.7-160.9
			c91,0,164.7,73.8,164.7,164.7c0,79.1-28.9,153.6-83.5,215.4c-41.8,47.3-98.4,86.8-168.3,117.6
			C1428.2,1350.7,1284.8,1377.2,1133.9,1377.2z"/>
		<path class="st6" d="M1624.6,1957.9c-151.6,0-274.6-122.9-274.6-274.6V584.4c0-151.6,122.9-274.6,274.6-274.6
			s274.6,122.9,274.6,274.6v1098.9C1899.2,1835,1776.3,1957.9,1624.6,1957.9z"/>
		<path class="st7" d="M643.1,782.1c-1.6,0-3.3,0-4.9,0c-1.6,0-3.3-0.1-4.9-0.2c-1.6-0.1-3.3-0.2-4.9-0.3c-1.6-0.1-3.3-0.3-4.9-0.4
			c-1.6-0.2-3.2-0.4-4.8-0.5c-1.6-0.2-3.2-0.4-4.8-0.7c-3.2-0.5-6.4-1.1-9.6-1.7c-3.1-0.6-6.3-1.4-9.4-2.1c-3.1-0.8-6.3-1.7-9.3-2.6
			c-3.1-0.9-6.1-2-9.2-3.1c-3-1.1-6.1-2.2-9-3.5c-3-1.2-5.9-2.5-8.9-3.9c-2.9-1.4-5.8-2.8-8.6-4.4c-2.9-1.5-5.7-3.1-8.4-4.8
			c-2.8-1.6-5.5-3.4-8.2-5.2c-2.7-1.8-5.4-3.6-8-5.6c-1.3-1-2.6-1.9-3.9-2.9s-2.5-2-3.8-3c-1.3-1-2.5-2.1-3.7-3.1
			c-1.2-1.1-2.5-2.2-3.6-3.2c-1.2-1.1-2.4-2.2-3.6-3.3c-1.2-1.1-2.3-2.3-3.5-3.4c-1.1-1.1-2.3-2.3-3.4-3.5c-1.1-1.2-2.2-2.4-3.3-3.6
			c-1.1-1.2-2.2-2.4-3.2-3.6c-1.1-1.2-2.1-2.5-3.1-3.7c-1-1.3-2-2.5-3-3.8c-1-1.3-2-2.6-2.9-3.9c-1.9-2.6-3.8-5.3-5.6-8
			c-1.8-2.7-3.5-5.4-5.2-8.2c-1.6-2.7-3.2-5.6-4.7-8.4c-1.5-2.8-3-5.7-4.3-8.6c-1.4-2.9-2.7-5.9-3.9-8.9c-1.2-3-2.4-6-3.5-9
			c-1.1-3-2.1-6.1-3-9.2c-0.9-3.1-1.8-6.2-2.6-9.3c-0.8-3.1-1.5-6.3-2.1-9.4c-0.6-3.2-1.2-6.4-1.7-9.6c-0.2-1.6-0.5-3.2-0.7-4.8
			c-0.2-1.6-0.4-3.2-0.5-4.8c-0.2-1.6-0.3-3.2-0.4-4.9c-0.1-1.6-0.2-3.2-0.3-4.9c-0.1-1.6-0.2-3.2-0.2-4.9c0-1.6-0.1-3.2-0.1-4.9
			c0-1.6,0-3.3,0.1-4.9c0-1.6,0.1-3.3,0.2-4.9c0.1-1.6,0.2-3.2,0.3-4.9c0.1-1.6,0.3-3.2,0.4-4.9c0.2-1.6,0.4-3.2,0.5-4.8
			c0.2-1.6,0.4-3.2,0.7-4.8c0.5-3.2,1.1-6.4,1.7-9.6c0.6-3.2,1.3-6.3,2.1-9.4c0.8-3.1,1.7-6.3,2.6-9.3c0.9-3.1,2-6.2,3-9.2
			c1.1-3,2.3-6.1,3.5-9c1.2-3,2.5-5.9,3.9-8.9c1.4-2.9,2.8-5.8,4.3-8.6c1.5-2.9,3.1-5.7,4.7-8.4c1.7-2.8,3.4-5.5,5.2-8.2
			c1.8-2.7,3.6-5.4,5.6-8c0.9-1.3,1.9-2.6,2.9-3.9c1-1.3,2-2.5,3-3.8c1-1.3,2.1-2.5,3.1-3.7c1.1-1.2,2.1-2.4,3.2-3.6
			c1.1-1.2,2.2-2.4,3.3-3.6c1.1-1.2,2.3-2.3,3.4-3.5c1.1-1.1,2.3-2.3,3.5-3.4c1.2-1.1,2.4-2.2,3.6-3.3c1.2-1.1,2.4-2.2,3.6-3.2
			c1.2-1.1,2.5-2.1,3.7-3.1c1.3-1,2.5-2,3.8-3s2.6-2,3.9-2.9c2.6-1.9,5.3-3.8,8-5.6c2.7-1.8,5.4-3.5,8.2-5.2
			c2.7-1.6,5.6-3.3,8.4-4.8c2.8-1.5,5.7-3,8.6-4.4c2.9-1.4,5.9-2.7,8.9-3.9c3-1.2,6-2.4,9-3.5c3-1.1,6.1-2.1,9.2-3
			c3.1-0.9,6.2-1.8,9.3-2.6c3.1-0.8,6.3-1.5,9.4-2.1c3.2-0.6,6.4-1.2,9.6-1.7c1.6-0.2,3.2-0.5,4.8-0.7c1.6-0.2,3.2-0.4,4.8-0.5
			c1.6-0.2,3.3-0.3,4.9-0.4c1.6-0.1,3.2-0.2,4.9-0.3c1.6-0.1,3.3-0.2,4.9-0.2c3.3-0.1,6.5-0.1,9.8,0c1.6,0,3.3,0.1,4.9,0.2
			c1.6,0.1,3.3,0.2,4.9,0.3c1.6,0.1,3.2,0.3,4.9,0.4c1.6,0.2,3.2,0.3,4.8,0.5c1.6,0.2,3.2,0.4,4.8,0.7c3.2,0.5,6.4,1.1,9.6,1.7
			c3.1,0.6,6.3,1.3,9.4,2.1c3.1,0.8,6.3,1.7,9.3,2.6c3.1,0.9,6.2,2,9.2,3c3,1.1,6.1,2.3,9,3.5c3,1.2,5.9,2.5,8.8,3.9
			c2.9,1.4,5.8,2.8,8.7,4.4c2.8,1.5,5.7,3.1,8.4,4.8c2.8,1.6,5.5,3.4,8.2,5.2c2.7,1.8,5.4,3.6,8,5.6c1.3,1,2.6,1.9,3.9,2.9
			s2.5,2,3.8,3c1.3,1,2.5,2.1,3.7,3.1c1.2,1.1,2.4,2.1,3.6,3.2c1.2,1.1,2.4,2.2,3.6,3.3c1.2,1.1,2.3,2.3,3.5,3.4
			c1.1,1.2,2.3,2.3,3.4,3.5c1.1,1.2,2.2,2.4,3.3,3.6c1.1,1.2,2.2,2.4,3.2,3.6c1,1.2,2.1,2.5,3.1,3.7c1,1.3,2,2.5,3,3.8
			c1,1.3,2,2.6,2.9,3.9c1.9,2.6,3.8,5.2,5.6,8c1.8,2.7,3.5,5.4,5.2,8.2c1.6,2.7,3.3,5.6,4.8,8.4c1.5,2.8,3,5.7,4.3,8.6
			c1.4,2.9,2.7,5.9,3.9,8.9c1.2,3,2.4,6,3.5,9c1.1,3,2.1,6.1,3,9.2c0.9,3.1,1.8,6.2,2.6,9.3c0.8,3.1,1.5,6.3,2.1,9.4
			c0.6,3.2,1.2,6.4,1.7,9.6c0.2,1.6,0.5,3.2,0.7,4.8c0.2,1.6,0.4,3.2,0.5,4.8c0.2,1.6,0.3,3.3,0.4,4.9c0.1,1.6,0.2,3.2,0.3,4.9
			c0.1,1.6,0.2,3.3,0.2,4.9c0,1.6,0.1,3.3,0.1,4.9c0,1.6,0,3.3-0.1,4.9c0,1.6-0.1,3.3-0.2,4.9c-0.1,1.6-0.2,3.3-0.3,4.9
			c-0.1,1.6-0.3,3.3-0.4,4.9c-0.2,1.6-0.4,3.2-0.5,4.8c-0.2,1.6-0.4,3.2-0.7,4.8c-0.5,3.2-1.1,6.4-1.7,9.6c-0.6,3.1-1.3,6.3-2.1,9.4
			c-0.8,3.1-1.7,6.3-2.6,9.3c-0.9,3.1-2,6.1-3,9.2c-1.1,3-2.3,6.1-3.5,9c-1.2,3-2.5,5.9-3.9,8.9c-1.4,2.9-2.8,5.8-4.3,8.6
			c-1.5,2.9-3.1,5.7-4.8,8.4c-1.6,2.8-3.4,5.5-5.2,8.2c-1.8,2.7-3.6,5.4-5.6,8c-1,1.3-1.9,2.6-2.9,3.9s-2,2.5-3,3.8
			c-1,1.3-2.1,2.5-3.1,3.7c-1.1,1.2-2.2,2.4-3.2,3.6c-1.1,1.2-2.2,2.4-3.3,3.6c-1.1,1.2-2.3,2.4-3.4,3.5c-1.1,1.1-2.3,2.3-3.5,3.4
			c-1.2,1.1-2.4,2.2-3.6,3.3c-1.2,1.1-2.4,2.2-3.6,3.2c-1.2,1.1-2.5,2.1-3.7,3.1c-1.3,1-2.5,2-3.8,3s-2.6,2-3.9,2.9
			c-2.6,1.9-5.3,3.8-8,5.6c-2.7,1.8-5.4,3.5-8.2,5.2c-2.7,1.6-5.6,3.3-8.4,4.8c-2.8,1.5-5.7,3-8.7,4.4c-2.9,1.4-5.9,2.7-8.8,3.9
			c-3,1.2-6,2.4-9,3.5c-3,1.1-6.1,2.1-9.2,3.1c-3.1,0.9-6.2,1.8-9.3,2.6c-3.1,0.8-6.3,1.5-9.4,2.1c-3.2,0.6-6.4,1.2-9.6,1.7
			c-1.6,0.2-3.2,0.5-4.8,0.7s-3.2,0.4-4.8,0.5c-1.6,0.2-3.3,0.3-4.9,0.4c-1.6,0.1-3.3,0.2-4.9,0.3c-1.6,0.1-3.3,0.2-4.9,0.2
			C646.3,782.1,644.7,782.1,643.1,782.1z"/>
		<path class="st7" d="M1624.6,782.1c-1.6,0-3.3,0-4.9,0c-1.6,0-3.3-0.1-4.9-0.2c-1.6-0.1-3.3-0.2-4.9-0.3c-1.6-0.1-3.3-0.3-4.9-0.4
			c-1.6-0.2-3.2-0.4-4.8-0.5c-1.6-0.2-3.2-0.4-4.8-0.7c-3.2-0.5-6.4-1.1-9.6-1.7c-3.2-0.6-6.3-1.4-9.4-2.1c-3.1-0.8-6.3-1.7-9.3-2.6
			c-3.1-0.9-6.2-2-9.2-3.1c-3-1.1-6.1-2.2-9-3.5c-3-1.2-6-2.5-8.9-3.9c-2.9-1.4-5.8-2.8-8.7-4.4c-2.8-1.5-5.7-3.1-8.4-4.8
			c-2.8-1.6-5.5-3.4-8.2-5.2c-2.7-1.8-5.3-3.6-7.9-5.6c-1.3-1-2.6-1.9-3.9-2.9c-1.3-1-2.5-2-3.8-3c-1.3-1-2.5-2.1-3.7-3.1
			c-1.2-1.1-2.5-2.2-3.6-3.2c-1.2-1.1-2.4-2.2-3.6-3.3c-1.2-1.1-2.4-2.3-3.5-3.4c-1.1-1.1-2.3-2.3-3.4-3.5c-1.1-1.2-2.2-2.4-3.3-3.6
			c-1.1-1.2-2.2-2.4-3.2-3.6c-1.1-1.2-2.1-2.5-3.1-3.7c-1-1.3-2-2.5-3-3.8c-1-1.3-2-2.6-2.9-3.9c-1.9-2.6-3.8-5.3-5.6-8
			c-1.8-2.7-3.5-5.4-5.2-8.2c-1.6-2.7-3.2-5.6-4.7-8.4c-1.5-2.8-3-5.7-4.3-8.6c-1.4-2.9-2.7-5.9-3.9-8.9c-1.2-3-2.4-6-3.5-9
			c-1.1-3-2.1-6.1-3-9.2c-0.9-3.1-1.8-6.2-2.6-9.3c-0.8-3.1-1.5-6.3-2.1-9.4c-0.6-3.2-1.2-6.4-1.7-9.6c-0.2-1.6-0.5-3.2-0.7-4.8
			c-0.2-1.6-0.4-3.2-0.5-4.8c-0.2-1.6-0.3-3.2-0.4-4.9c-0.1-1.6-0.2-3.2-0.3-4.9c-0.1-1.6-0.2-3.2-0.2-4.9c0-1.6-0.1-3.2-0.1-4.9
			c0-1.6,0-3.3,0.1-4.9c0-1.6,0.1-3.3,0.2-4.9c0.1-1.6,0.2-3.2,0.3-4.9c0.1-1.6,0.3-3.2,0.4-4.9c0.2-1.6,0.4-3.2,0.5-4.8
			c0.2-1.6,0.4-3.2,0.7-4.8c0.5-3.2,1.1-6.4,1.7-9.6c0.6-3.2,1.3-6.3,2.1-9.4c0.8-3.1,1.7-6.3,2.6-9.3c0.9-3.1,2-6.2,3-9.2
			c1.1-3,2.3-6.1,3.5-9c1.2-3,2.5-5.9,3.9-8.9c1.4-2.9,2.8-5.8,4.3-8.6c1.5-2.9,3.1-5.7,4.7-8.4c1.7-2.8,3.4-5.5,5.2-8.2
			c1.8-2.7,3.6-5.4,5.6-8c0.9-1.3,1.9-2.6,2.9-3.9c1-1.3,2-2.5,3-3.8c1-1.3,2.1-2.5,3.1-3.7c1.1-1.2,2.1-2.4,3.2-3.6
			c1.1-1.2,2.2-2.4,3.3-3.6c1.1-1.2,2.3-2.3,3.4-3.5c1.1-1.1,2.3-2.3,3.5-3.4c1.2-1.1,2.4-2.2,3.6-3.3c1.2-1.1,2.4-2.2,3.6-3.2
			c1.2-1.1,2.5-2.1,3.7-3.1c1.3-1,2.5-2,3.8-3c1.3-1,2.6-2,3.9-2.9c2.6-1.9,5.3-3.8,7.9-5.6c2.7-1.8,5.4-3.5,8.2-5.2
			c2.7-1.6,5.6-3.3,8.4-4.8c2.8-1.5,5.8-3,8.7-4.4c2.9-1.4,5.9-2.7,8.9-3.9c3-1.2,6-2.4,9-3.5c3-1.1,6.1-2.1,9.2-3
			c3.1-0.9,6.2-1.8,9.3-2.6c3.1-0.8,6.3-1.5,9.4-2.1c3.2-0.6,6.4-1.2,9.6-1.7c1.6-0.2,3.2-0.5,4.8-0.7c1.6-0.2,3.2-0.4,4.8-0.5
			c1.6-0.2,3.2-0.3,4.9-0.4c1.6-0.1,3.2-0.2,4.9-0.3c1.6-0.1,3.3-0.2,4.9-0.2c3.3-0.1,6.5-0.1,9.8,0c1.6,0,3.3,0.1,4.9,0.2
			c1.6,0.1,3.3,0.2,4.9,0.3c1.6,0.1,3.2,0.3,4.9,0.4c1.6,0.2,3.2,0.3,4.8,0.5c1.6,0.2,3.2,0.4,4.8,0.7c3.2,0.5,6.4,1.1,9.6,1.7
			c3.1,0.6,6.3,1.3,9.4,2.1c3.1,0.8,6.3,1.7,9.3,2.6c3.1,0.9,6.1,2,9.2,3c3,1.1,6.1,2.3,9,3.5c3,1.2,5.9,2.5,8.8,3.9
			c2.9,1.4,5.8,2.8,8.7,4.4c2.8,1.5,5.7,3.1,8.4,4.8c2.8,1.6,5.5,3.4,8.2,5.2c2.7,1.8,5.4,3.6,8,5.6c1.3,1,2.6,1.9,3.9,2.9
			c1.3,1,2.5,2,3.8,3c1.3,1,2.5,2.1,3.7,3.1c1.2,1.1,2.4,2.1,3.6,3.2c1.2,1.1,2.4,2.2,3.6,3.3c1.2,1.1,2.3,2.3,3.5,3.4
			c1.1,1.2,2.3,2.3,3.4,3.5c1.1,1.2,2.2,2.4,3.3,3.6c1.1,1.2,2.2,2.4,3.2,3.6c1,1.2,2.1,2.5,3.1,3.7c1,1.3,2,2.5,3,3.8
			c1,1.3,2,2.6,2.9,3.9c1.9,2.6,3.8,5.2,5.6,8c1.8,2.7,3.5,5.4,5.2,8.2c1.6,2.7,3.3,5.6,4.8,8.4c1.5,2.8,3,5.7,4.3,8.6
			c1.4,2.9,2.7,5.9,3.9,8.9c1.2,3,2.4,6,3.5,9c1.1,3,2.1,6.1,3.1,9.2c0.9,3.1,1.8,6.2,2.6,9.3c0.8,3.1,1.5,6.3,2.2,9.4
			c0.6,3.2,1.2,6.4,1.7,9.6c0.2,1.6,0.5,3.2,0.7,4.8c0.2,1.6,0.4,3.2,0.5,4.8c0.2,1.6,0.3,3.3,0.4,4.9c0.1,1.6,0.2,3.2,0.3,4.9
			c0.1,1.6,0.2,3.3,0.2,4.9c0,1.6,0.1,3.3,0.1,4.9c0,1.6,0,3.3-0.1,4.9c0,1.6-0.1,3.3-0.2,4.9c-0.1,1.6-0.2,3.3-0.3,4.9
			c-0.1,1.6-0.3,3.3-0.4,4.9c-0.2,1.6-0.4,3.2-0.5,4.8c-0.2,1.6-0.4,3.2-0.7,4.8c-0.5,3.2-1.1,6.4-1.7,9.6c-0.6,3.1-1.4,6.3-2.2,9.4
			c-0.8,3.1-1.6,6.3-2.6,9.3c-0.9,3.1-2,6.1-3.1,9.2c-1.1,3-2.2,6.1-3.5,9c-1.2,3-2.5,5.9-3.9,8.9c-1.4,2.9-2.8,5.8-4.3,8.6
			c-1.5,2.9-3.1,5.7-4.8,8.4c-1.6,2.8-3.4,5.5-5.2,8.2c-1.8,2.7-3.6,5.4-5.6,8c-1,1.3-2,2.6-2.9,3.9c-1,1.3-2,2.5-3,3.8
			c-1,1.3-2.1,2.5-3.1,3.7c-1.1,1.2-2.2,2.4-3.2,3.6c-1.1,1.2-2.2,2.4-3.3,3.6c-1.1,1.2-2.3,2.4-3.4,3.5c-1.1,1.1-2.3,2.3-3.5,3.4
			c-1.2,1.1-2.4,2.2-3.6,3.3c-1.2,1.1-2.4,2.2-3.6,3.2c-1.2,1.1-2.5,2.1-3.7,3.1c-1.3,1-2.5,2-3.8,3c-1.3,1-2.6,2-3.9,2.9
			c-2.6,1.9-5.3,3.8-8,5.6c-2.7,1.8-5.4,3.5-8.2,5.2c-2.7,1.6-5.6,3.3-8.4,4.8c-2.8,1.5-5.7,3-8.7,4.4c-2.9,1.4-5.9,2.7-8.8,3.9
			c-3,1.2-6,2.4-9,3.5c-3,1.1-6.1,2.1-9.2,3.1c-3.1,0.9-6.2,1.8-9.3,2.6c-3.1,0.8-6.3,1.5-9.4,2.1c-3.2,0.6-6.4,1.2-9.6,1.7
			c-1.6,0.2-3.2,0.5-4.8,0.7c-1.6,0.2-3.2,0.4-4.8,0.5c-1.6,0.2-3.3,0.3-4.9,0.4c-1.6,0.1-3.3,0.2-4.9,0.3c-1.6,0.1-3.3,0.2-4.9,0.2
			C1627.9,782.1,1626.3,782.1,1624.6,782.1z"/>
	</g>
</g>
</svg>
